<?xml version="1.0" encoding="iso-8859-1"?>
<!-- Generator: Adobe Illustrator 19.0.0, SVG Export Plug-In . SVG Version: 6.00 Build 0)  -->
<svg version="1.1" id="Capa_1" xmlns="http://www.w3.org/2000/svg" xmlns:xlink="http://www.w3.org/1999/xlink" x="0px" y="0px"
	 viewBox="0 0 512 512" style="enable-background:new 0 0 512 512;" xml:space="preserve">
<g>
	<g>
		<polygon fill="#fff" points="26.8,140.991 26.8,371.008 139.3,306.055 139.3,205.943 		"/>
	</g>
</g>
<g>
	<g>
		<polygon fill="#fff" points="169.3,223.264 169.3,306.056 241,347.452 241,264.66 		"/>
	</g>
</g>
<g>
	<g>
		<polygon fill="#fff" points="154.299,332.036 41.799,396.989 241,512 241,382.093 		"/>
	</g>
</g>
<g>
	<g>
		<polygon fill="#fff" points="271,264.66 271,347.452 342.7,306.056 342.7,223.264 		"/>
	</g>
</g>
<g>
	<g>
		<polygon fill="#fff" points="372.7,205.943 372.7,306.055 485.2,371.008 485.2,140.991 		"/>
	</g>
</g>
<g>
	<g>
		<polygon fill="#fff" points="357.7,332.036 271,382.093 271,512 470.201,396.989 		"/>
	</g>
</g>
<g>
	<g>
		<polygon fill="#fff" points="271,0 271,129.907 357.7,179.963 470.2,115.011 		"/>
	</g>
</g>
<g>
	<g>
		<polygon fill="#fff" points="41.8,115.011 154.3,179.963 241,129.907 241,0 		"/>
	</g>
</g>
<g>
	<g>
		<polygon fill="#fff" points="256,155.888 184.3,197.284 256,238.68 327.7,197.284 		"/>
	</g>
</g>
<g>
</g>
<g>
</g>
<g>
</g>
<g>
</g>
<g>
</g>
<g>
</g>
<g>
</g>
<g>
</g>
<g>
</g>
<g>
</g>
<g>
</g>
<g>
</g>
<g>
</g>
<g>
</g>
<g>
</g>
</svg>
