<?xml version="1.0" encoding="iso-8859-1"?>
<!-- Generator: Adobe Illustrator 19.0.0, SVG Export Plug-In . SVG Version: 6.00 Build 0)  -->
<svg version="1.1" id="Capa_1" xmlns="http://www.w3.org/2000/svg" xmlns:xlink="http://www.w3.org/1999/xlink" x="0px" y="0px"
	 viewBox="0 0 512 512" style="enable-background:new 0 0 512 512;" xml:space="preserve">
<g>
	<g>
		<g>
			<path d="M448,106.667h-64v-32C384,68.771,379.229,64,373.333,64H10.667C4.771,64,0,68.771,0,74.667v330.667
				C0,428.865,19.146,448,42.667,448h298.667C364.854,448,384,428.865,384,405.333V384h64c35.292,0,64-28.708,64-64V170.667
				C512,135.375,483.292,106.667,448,106.667z M362.667,405.333c0,11.76-9.563,21.333-21.333,21.333H42.667
				c-11.771,0-21.333-9.573-21.333-21.333v-320h341.333V405.333z M384,170.667h64V320h-64V170.667z M490.667,320
				c0,23.531-19.146,42.667-42.667,42.667h-64v-21.333h64c11.771,0,21.333-9.573,21.333-21.333V170.667
				c0-11.76-9.563-21.333-21.333-21.333h-64V128h64c23.521,0,42.667,19.135,42.667,42.667V320z"/>
			<path d="M74.667,213.333h64c5.896,0,10.667-4.771,10.667-10.667v-64c0-5.896-4.771-10.667-10.667-10.667h-64
				C68.771,128,64,132.771,64,138.667v64C64,208.563,68.771,213.333,74.667,213.333z M85.333,149.333H128V192H85.333V149.333z"/>
			<path d="M245.333,213.333h64c5.896,0,10.667-4.771,10.667-10.667v-64c0-5.896-4.771-10.667-10.667-10.667h-64
				c-5.896,0-10.667,4.771-10.667,10.667v64C234.667,208.563,239.438,213.333,245.333,213.333z M256,149.333h42.667V192H256V149.333
				z"/>
			<path d="M149.333,256H96c-5.896,0-10.667,4.771-10.667,10.667v106.667C85.333,379.229,90.104,384,96,384h42.667
				c5.896,0,10.667-4.771,10.667-10.667v-32h85.333v32c0,5.896,4.771,10.667,10.667,10.667H288c5.896,0,10.667-4.771,10.667-10.667
				V266.667c0-5.896-4.771-10.667-10.667-10.667h-53.333v-32c0-5.896-4.771-10.667-10.667-10.667h-64
				c-5.896,0-10.667,4.771-10.667,10.667V256z M160,277.333c5.896,0,10.667-4.771,10.667-10.667v-32h42.667v32
				c0,5.896,4.771,10.667,10.667,10.667h53.333v85.333H256v-32c0-5.896-4.771-10.667-10.667-10.667H138.667
				c-5.896,0-10.667,4.771-10.667,10.667v32h-21.333v-85.333H160z"/>
		</g>
	</g>
</g>
<g>
</g>
<g>
</g>
<g>
</g>
<g>
</g>
<g>
</g>
<g>
</g>
<g>
</g>
<g>
</g>
<g>
</g>
<g>
</g>
<g>
</g>
<g>
</g>
<g>
</g>
<g>
</g>
<g>
</g>
</svg>
