<?xml version="1.0" encoding="iso-8859-1"?>
<!-- Generator: Adobe Illustrator 19.0.0, SVG Export Plug-In . SVG Version: 6.00 Build 0)  -->
<svg version="1.1" id="Layer_1" xmlns="http://www.w3.org/2000/svg" xmlns:xlink="http://www.w3.org/1999/xlink" x="0px" y="0px"
	 viewBox="0 0 469.333 469.333" style="enable-background:new 0 0 469.333 469.333;" xml:space="preserve">
<g>
	<g>
		<g>
			<path d="M426.667,0h-384C19.135,0,0,19.135,0,42.667v384c0,23.531,19.135,42.667,42.667,42.667h384
				c23.531,0,42.667-19.135,42.667-42.667v-384C469.333,19.135,450.198,0,426.667,0z M448,426.667
				c0,11.76-9.573,21.333-21.333,21.333h-384c-11.76,0-21.333-9.573-21.333-21.333v-384c0-11.76,9.573-21.333,21.333-21.333h384
				c11.76,0,21.333,9.573,21.333,21.333V426.667z"/>
			<path d="M96,213.333h85.333c17.646,0,32-14.354,32-32V96c0-17.646-14.354-32-32-32H96c-17.646,0-32,14.354-32,32v85.333
				C64,198.979,78.354,213.333,96,213.333z M85.333,96c0-5.885,4.781-10.667,10.667-10.667h85.333C187.219,85.333,192,90.115,192,96
				v85.333c0,5.885-4.781,10.667-10.667,10.667H96c-5.885,0-10.667-4.781-10.667-10.667V96z"/>
			<path d="M330.667,64C289.5,64,256,97.5,256,138.667s33.5,74.667,74.667,74.667s74.667-33.5,74.667-74.667S371.833,64,330.667,64z
				 M330.667,192c-29.406,0-53.333-23.927-53.333-53.333s23.927-53.333,53.333-53.333S384,109.26,384,138.667
				S360.073,192,330.667,192z"/>
			<path d="M184.073,280.698c-6.354-20.135-17.823-46.031-34.74-46.031c-16.917,0-28.385,25.896-34.74,46.031
				c-17.646-0.854-44.458,0.781-49.74,17.76c-4.99,16.052,13.708,36.885,28.542,50.323c-4.885,15.927-10.135,42.021,3.583,52.417
				c3.792,2.875,8.417,4.042,13.417,4.042c13.021,0,28.615-7.885,38.938-14.146c14.302,8.667,38.698,20.458,52.365,10.104
				c13.708-10.396,8.458-36.49,3.573-52.417c14.844-13.438,33.542-34.271,28.542-50.333
				C228.51,281.458,201.667,279.906,184.073,280.698z M186.021,337.292c-3.385,2.875-4.646,7.552-3.146,11.729
				c5.167,14.458,7.833,31.781,6.448,34.885c-4.344,1.406-20.927-5.594-34.083-14.333c-3.583-2.375-8.24-2.385-11.823,0.01
				c-13.125,8.74-29.604,15.448-33.094,15.083c-2.344-3.844,0.313-21.177,5.469-35.656c1.49-4.177,0.24-8.844-3.146-11.719
				c-14.281-12.125-27.302-27.865-27.917-31.583c2.365-2.313,12.406-3.74,23.677-3.74c4.24,0,8.656,0.198,12.896,0.635
				c5.229,0.469,10-2.76,11.385-7.802c4.458-16.302,11.927-33.125,16.646-37.958c4.708,4.823,12.177,21.646,16.646,37.958
				c1.375,5.042,6.302,8.292,11.385,7.802c15.552-1.583,33.302-0.094,35.969,1.656C213.323,309.427,200.302,325.167,186.021,337.292
				z"/>
			<path d="M357.76,275.323c-0.104-0.229-0.229-0.448-0.354-0.656c-4.26-11.271-14.698-18.667-26.74-18.667
				c-12.031,0-22.469,7.396-26.729,18.656c-0.125,0.198-0.24,0.406-0.344,0.625c-45.115,89.448-45.135,89.5-45.146,89.531
				c-0.323,0.656-0.583,1.333-0.76,2.021c-1.125,3.146-1.687,6.354-1.687,9.552c0,15.958,12.99,28.948,28.948,28.948h91.438
				c15.958,0,28.948-12.99,28.948-28.948c0-3.49-0.885-6.344-2.198-10.083L357.76,275.323z M376.385,384h-91.438
				c-4.198,0-7.615-3.417-7.615-7.615c0-0.875,0.198-1.771,0.594-2.76c0.031-0.083,0.063-0.167,0.094-0.25
				c4.094-8.125,37.656-74.677,43.688-86.646c0.865-1.083,1.531-2.354,1.927-3.75c0.792-2.813,3.271-5.646,7.031-5.646
				c3.76,0,6.24,2.833,7.031,5.646c0.396,1.385,1.052,2.646,1.906,3.719l43.823,87.594c0.229,0.75,0.552,1.771,0.573,2.094
				C384,380.583,380.583,384,376.385,384z"/>
		</g>
	</g>
</g>
<g>
</g>
<g>
</g>
<g>
</g>
<g>
</g>
<g>
</g>
<g>
</g>
<g>
</g>
<g>
</g>
<g>
</g>
<g>
</g>
<g>
</g>
<g>
</g>
<g>
</g>
<g>
</g>
<g>
</g>
</svg>
