<svg width="156" height="564" viewBox="0 0 156 564" xmlns="http://www.w3.org/2000/svg"><title>Elegant</title><path d="M100.912 476.006c-5.235 0-10-.157-13.438-.47v3.673c25.782 3.984 34.063 13.828 34.063 28.125v7.89c0 9.297-1.406 11.016-11.406 11.016H69.818v-5.156c0-12.813 9.922-17.89 21.172-19.532v-3.671c-12.188.78-17.5.937-22.734.937-2.344 0-4.688.078-7.657.078-3.672 0-8.28-.078-15.078-.547v3.672c8.672 1.719 21.094 6.25 21.094 19.063v5.156h-39.61c-10 0-11.406-1.719-11.406-11.016v-6.562c0-14.688 7.422-23.047 30.86-26.25v-3.672c-2.578.312-6.64.469-10.86.469-4.609 0-14.218-.313-23.672-1.094.47 9.844.47 23.672.47 33.437 0 10.704 0 34.688-.47 52.11h3.204c.468-10.078 2.109-11.953 13.75-11.953h79.375c11.64 0 13.28 1.797 13.75 11.953h3.203c-.469-17.422-.469-41.406-.469-52.11 0-10.78 0-25.78.469-36.64-9.61.937-19.532 1.094-24.297 1.094zM-.026 428.954c1.563 6.64 2.188 14.453 2.188 23.36 0 3.203-.156 6.562-.469 9.921h3.36c0-7.734 4.53-10.234 14.14-10.234h91.172c8.906 0 11.484 2.734 11.484 10.234h3.36c-.157-4.296-.625-13.828-.625-22.187 0-8.281.468-17.266.625-21.328h-3.36c0 7.422-2.578 10.234-11.484 10.234H-.025zm114.297-65.02c0-6.406-2.187-14.531-12.812-21.015l1.093-2.891c12.032 3.828 24.922 14.297 24.922 32.031 0 21.563-13.593 36.875-42.812 36.875-29.688 0-44.453-16.406-44.453-39.14 0-18.672 10.468-30.079 35.547-30.079v44.766c2.343.234 5 .313 7.578.313 22.265 0 30.937-10.704 30.937-20.86zm-70.625 6.797c0 7.188 8.36 12.89 29.063 14.219v-25.078c-15.625-.313-29.063 3.047-29.063 10.859zm61.094-65.333v-36.796c0-11.641 4.14-21.641 17.187-21.641 15.391 0 33.36 14.531 33.36 46.328 0 24.14-6.172 35.469-13.828 35.469-10.157 0-9.532-15.703-15.39-24.219v3.75c0 6.094-2.11 17.89-14.845 17.89-9.062 0-15.312-5.156-22.5-20.39-3.515 10.703-11.015 17.578-23.047 17.578-17.656 0-25.468-14.687-25.468-34.375 0-4.219.39-8.281 1.093-11.953-2.656.156-5.312 0-7.89-.547-8.36-1.015-14.766-5.625-14.766-15.156 0-6.797 3.75-11.64 9.766-11.64 5.39 0 9.297 4.687 9.297 10.937 0 6.797-3.36 9.922-8.985 11.953 1.875 1.094 4.61 1.875 8.125 2.344.782.078 1.563.078 2.344.078.86 0 1.719 0 2.578-.078 3.125-12.266 10.781-20.39 23.906-20.39 17.579 0 25.47 14.765 25.47 34.452 0 5-.47 9.688-1.563 13.828 3.203 5.39 5.781 9.14 9.843 9.14 3.672 0 5.313-2.265 5.313-6.562zM43.1 288.992c0 6.64 5.468 10.703 22.577 10.703 17.11 0 22.579-4.062 22.579-10.703 0-6.64-5.47-10.703-22.579-10.703S43.1 282.352 43.1 288.992zm109.452 0c0-12.89-7.265-24.219-19.843-24.219-4.297 0-6.64 1.954-6.64 9.22v27.5c3.593 3.75 9.218 5.468 12.655 5.468 9.141 0 13.828-7.89 13.828-17.969zM40.21 200.691c0-10.313 1.875-18.281 7.187-23.438 4.844-4.687 11.25-5.703 22.422-5.703h43.516c5.156 0 7.11-.86 7.11-3.437 0-2.266-1.329-4.063-2.735-5.86l2.734-1.64c3.906 4.843 5.86 10.156 5.86 18.281 0 11.719-6.094 15.312-12.97 15.39 8.985 5.47 12.97 14.61 12.97 23.594 0 11.953-6.563 20.235-18.204 20.235-11.562 0-18.047-7.657-23.515-22.5-4.453-11.797-7.5-21.016-14.375-21.016h-12.5c-8.36 0-14.297 3.594-14.297 13.047 0 3.828 1.094 8.516 3.906 11.406 1.953-5.703 6.094-9.453 12.578-9.453 6.64 0 11.485 5.156 11.485 13.047 0 6.953-5.313 11.328-12.344 11.328-5.86 0-10.313-3.75-13.36-8.984-3.203-5.703-5.468-13.516-5.468-24.297zm69.375-6.094H76.77c2.422 1.484 4.531 4.531 7.89 9.922 4.141 5.625 9.376 10.86 18.985 10.86 8.828 0 12.422-4.298 12.422-10 0-3.907-1.719-7.423-6.484-10.782zM40.209 94.343c0 11.25 4.062 20.78 14.922 26.093H40.677c1.563 6.72 2.266 14.454 2.266 23.36 0 3.203-.234 6.562-.547 9.922h3.36c0-7.735 4.53-10.235 14.14-10.235h50.469c8.906 0 11.484 2.813 11.484 10.235h3.36c-.157-4.22-.625-13.828-.625-22.032 0-7.812.468-16.093.625-19.843h-3.36c0 6.328-2.578 8.593-11.484 8.593h-44.61c-10.546 0-18.515-6.875-18.515-15.859 0-7.969 5.39-9.844 13.36-9.844h49.765c8.906 0 11.484 2.266 11.484 8.594h3.36c-.157-3.906-.625-12.578-.625-20.781 0-7.813.468-17.031.625-21.094h-3.36c0 7.422-2.578 10.234-11.484 10.234H67.24c-10.86 0-16.719 1.485-20.781 5-3.75 3.282-6.25 8.516-6.25 17.657zm2.343-73.536H16.224c3.594 6.64 5.078 14.062 5.157 23.047h21.171V57.29h3.204V43.854H99.74c11.172 0 17.656-1.172 22.344-5.781 3.593-3.594 5.39-8.829 5.39-16.016 0-11.797-6.875-18.36-16.406-21.875l-1.484 2.656c7.11 3.125 9.61 7.031 9.61 10.938 0 4.687-2.345 7.03-8.907 7.03H45.756V1.902h-3.204v18.906z" fill="#FFF" fill-rule="evenodd"/></svg>