<svg width="154" height="531" viewBox="0 0 154 531" xmlns="http://www.w3.org/2000/svg"><title>Unique</title><path d="M11.316 426.253c.312 3.282.469 8.828.469 13.907 0 5.703-.157 13.125-.47 17.265h3.204c1.406-13.437 5.469-15.547 23.047-15.547H79.83c24.297 0 41.407 6.563 41.407 29.141 0 17.031-11.172 22.11-32.578 22.11H28.269c-11.64 0-13.281-2.11-13.75-12.97h-3.203c.312 5.938.469 15.704.469 25.313 0 9.922-.157 19.61-.47 25.078h3.204c.469-10.234 2.11-12.031 13.75-12.031h50.234c20.547 0 31.953-2.188 40.235-12.578 6.328-7.89 8.125-18.828 8.125-28.828 0-16.25-5.782-26.875-14.922-32.344-8.36-5-20-6.563-33.906-6.563H35.613c-15.469 0-19.688-1.796-21.094-11.953h-3.203zm28.281-65.723c0 11.25 4.063 20.781 14.922 26.094H40.066c1.562 6.719 2.265 14.453 2.265 23.36 0 3.202-.234 6.562-.546 9.921h3.359c0-7.734 4.531-10.234 14.14-10.234h50.47c8.906 0 11.484 2.812 11.484 10.234h3.36c-.157-4.219-.626-13.828-.626-22.031 0-7.813.469-16.094.625-19.844h-3.36c0 6.328-2.577 8.594-11.484 8.594H65.144c-10.547 0-18.516-6.875-18.516-15.86 0-7.968 5.391-9.843 13.36-9.843h49.765c8.907 0 11.485 2.265 11.485 8.594h3.36c-.157-3.907-.626-12.579-.626-20.782 0-7.812.469-17.031.625-21.093h-3.36c0 7.421-2.577 10.234-11.484 10.234H66.628c-10.859 0-16.718 1.484-20.78 5-3.75 3.281-6.25 8.516-6.25 17.656zM.535 298.713c0 8.985 4.687 14.61 12.343 14.61 7.735 0 12.422-5.625 12.422-14.61 0-8.828-4.687-14.531-12.422-14.531-7.656 0-12.343 5.703-12.343 14.531zm39.53-12.578c1.563 6.719 2.266 14.453 2.266 23.36 0 3.203-.234 6.562-.546 9.921h3.359c0-7.734 4.531-10.234 14.14-10.234h50.47c8.906 0 11.484 2.812 11.484 10.234h3.36c-.157-4.218-.626-13.828-.626-22.11 0-8.358.469-17.343.625-21.405h-3.36c0 7.5-2.577 10.234-11.484 10.234H40.066zm9.61-98.067h89.61c8.515 0 10.937-2.578 10.937-9.531h3.36c-.157 3.906-.704 12.265-.704 20.156 0 10.781.547 21.406.703 26.875h-3.359c0-9.062-2.578-14.453-12.5-14.453h-25.781c9.765 3.672 14.922 10.86 14.922 20.703 0 18.36-13.438 32.734-43.985 32.734-28.984 0-43.28-14.453-43.28-35 0-8.437 1.64-14.765 6.562-19.843.312-7.657-2.735-16.016-6.875-20.313l1.406-2.422c2.812.938 5.86 1.094 8.984 1.094zm70.235 37.11c0-6.407-5.079-12.422-13.75-14.063H47.956c-3.437 3.203-5 7.812-5 12.5 0 11.016 13.204 16.797 40.235 16.797 27.265 0 36.719-6.016 36.719-15.235zM40.066 91.172c1.562 6.64 2.265 14.453 2.265 23.36 0 3.202-.234 6.562-.546 9.921h3.359c0-7.734 4.531-10.234 14.14-10.234h42.032c10.547 0 18.515 7.031 18.515 15.547 0 7.968-5.468 9.531-13.437 9.531H40.066c1.562 6.719 2.265 14.453 2.265 23.36 0 3.202-.234 6.562-.546 9.921h3.359c0-7.734 4.531-10.234 14.14-10.234h40.547c10.547 0 16.72-1.328 20.704-4.844 3.75-3.36 6.328-8.672 6.328-17.5 0-11.016-4.219-20.547-14.922-25.781h14.453c-1.563-6.64-2.188-14.453-2.188-23.36 0-3.203.157-6.562.47-9.921h-3.36c0 7.734-4.531 10.234-14.063 10.234H40.066zM113.66 24.59c0-6.406-2.188-14.53-12.813-21.015l1.094-2.89c12.031 3.827 24.922 14.296 24.922 32.03 0 21.563-13.594 36.875-42.813 36.875-29.687 0-44.453-16.406-44.453-39.14C39.597 11.778 50.066.372 75.144.372v44.765c2.344.235 5 .313 7.578.313 22.266 0 30.938-10.703 30.938-20.86zm-70.625 6.797c0 7.188 8.359 12.89 29.062 14.219V20.528c-15.625-.313-29.062 3.047-29.062 10.86z" fill="#FFF" fill-rule="evenodd"/></svg>